# xmcd
#
# Track frame offsets:
#	150
#	19257
#	37310
#	53520
#	70062
#	83772
#	100627
#	113810
#	127742
#	144330
#	163732
#	178870
#	192770
#	212772
#
# Disc length: 3167 seconds
# Revision: 0
# Processed by: cddbd v1.5.2PL0 Copyright (c) Steve Scherf et al.
# Submitted via: dBpowerAMP V12.0
#
DISCID=b90c5d0e
DTITLE=Chico Buarque - Songbook Chico Buarque 4
DYEAR=1999
DGENRE=Brazil
TTITLE0=Feijoada Completa (Zeca Pagodinho e Almir Guineto)
TTITLE1=A Mais Bonita (Zélia Duncan e Bia Paes Leme)
TTITLE2=Chão De Esmeralda Alcione)
TTITLE3=A Noiva Da Cidade (Fátima Guedes e Lula Galvão)
TTITLE4=A Volta Do Malandro (MPB4)
TTITLE5=Sem Açucar (Elba Ramalho)
TTITLE6=Bom Tempo (Toquinho)
TTITLE7=Noite Dos Mascarados (Bernardo Lobo e Dora Vergueiro)
TTITLE8=Todo O Sentimento (Miúcha e Cristóvão Bastos)
TTITLE9=Viver Do Amor (Caubi Peixoto)
TTITLE10=Grande Hotel (Miltinho)
TTITLE11=Pois É (Os Cariocas)
TTITLE12=Nicanor (Zé Renato e Ricardo Silveira)
TTITLE13=A Rosa (Johnny Alf)
EXTD=
EXTT0=
EXTT1=
EXTT2=
EXTT3=
EXTT4=
EXTT5=
EXTT6=
EXTT7=
EXTT8=
EXTT9=
EXTT10=
EXTT11=
EXTT12=
EXTT13=
PLAYORDER=
